<?xml version="1.0" encoding="utf-8"?>
<svg x="0px" y="0px" width="800px" height="800px" viewBox="0 0 800 800" xmlns="http://www.w3.org/2000/svg" xmlns:xlink="http://www.w3.org/1999/xlink">
  <!--Generated by AMDN-->
  <g id="Layer 1">
    <path id="Path" style="fill:#603812;fill-opacity:1;fill-rule:nonzero;opacity:1;stroke:#000000;stroke-linecap:round;stroke-linejoin:round;stroke-miterlimit:10;stroke-opacity:1;stroke-width:10;" d="M333.511,489.122 C345.003,531.261,315.524,530.97,292.445,557.425 C360.715,557.425,414.441,577.52,484.366,562.873 C480.413,550.891,465.61,540.919,459.556,529.394 C452.923,516.769,453.746,500.058,451.681,486.188"/>
    <path id="Path" style="fill:#006736;fill-opacity:1;fill-rule:nonzero;opacity:1;stroke:#000000;stroke-linecap:round;stroke-linejoin:round;stroke-miterlimit:10;stroke-opacity:1;stroke-width:10;" d="M375.662,233.096 C384.038,217.54,402.093,175.887,426.729,184.475 C432.909,186.63,431.237,206.472,435.907,205.497 C447.656,203.045,451.413,172.832,471.06,182.64 C480.438,187.322,468.834,208.813,481.835,209.026 C501.433,209.348,512.123,177.3,533.426,178.389 C538.463,178.646,535.307,187.089,540.806,188.306 C550.853,190.531,572.454,183.801,580.086,191.384 C590.406,201.636,582.38,225.824,575.255,235.234 C587.158,236.446,597.451,224.989,608.168,226.434 C612.75,227.053,615.629,240.3,644.4,235.947 C642.984,250.106,631.059,268.347,633.431,282.039 C634.919,290.621,650.391,281.673,653.692,287.916 C664.882,309.079,645.09,328.666,634.42,343.585 C656.933,348.517,645.292,362.095,655.981,375.495 C661.81,382.803,675.837,374.692,680.172,382.666 C693.173,406.578,654.845,444.397,632.994,446.232 C646.357,456.646,641.915,509.108,639.043,509.442 C625.872,510.976,619.97,477.168,610.052,481.422 C601.186,485.224,608.224,505.831,595.955,509.44 C584.019,512.95,581.246,490.138,569.372,494.609 C559.22,498.432,560.827,519.16,550.264,525.782 C539.241,532.693,531.65,519.86,520.723,522.287 C509.449,524.791,506.255,540.44,493.016,538.686 C483.366,537.408,483.166,526.893,470.335,530.534 C456.493,534.462,450.163,555.684,435.079,556.121 C434.456,556.139,433.818,556.102,433.218,555.934 C427.333,554.285,428.899,544.398,425.776,540.311 C419.738,532.408,405.426,541.567,398.145,537.129 C392.236,533.527,396.144,522.931,389.902,519.923 C389.331,519.649,388.708,519.483,388.087,519.361 C378.849,517.541,374.222,528.313,365.749,528.357 C359.3,528.39,352.564,522.555,344.815,522.51 C319.547,522.362,295.251,528.101,270.163,528.921 C270.163,528.921,273.727,526.069,273.727,526.069 C253.724,525.929,218.363,528.478,199.836,521.178 C194.5,519.075,194.924,509.362,192.953,504.823 C187.973,493.354,163.762,498.14,153.972,499.695 C153.472,494.147,156.419,462.032,152.728,460.715 C145.524,458.143,134.339,467.65,127.597,469.756 C127.597,444.233,125.344,418.983,94.0937,439.817 C96.1231,421.552,112.476,410.064,114.896,392.961 C116.142,384.16,102.966,390.023,102.054,381.288 C99.6862,358.602,103.975,338.321,94.8066,316.497 C94.2648,319.948,93.389,356.947,100.717,353.38 C105.013,351.288,98.2169,291.503,102.669,283.335 C105.344,278.426,116.399,295.23,123.249,289.056 C136.372,277.229,125.449,240.47,131.493,224.491 C138.252,206.62,150.52,236.63,157.307,231.387 C165.5,225.059,161.1,196.06,161.1,186.762 C171.416,188.948,173.291,202.653,185.086,202.98 C186.329,203.014,187.99,202.906,189.206,202.61 C200.999,199.735,198.596,179.161,209.359,174.863 C217.58,171.581,223.322,191.217,235.405,189.419 C246.972,187.697,249.37,167.842,264.602,168.503 C278.432,169.102,275.065,193.673,291.11,194.398 C306.399,195.089,308.445,171.696,323.409,170.2 C330.505,169.49,336.952,175.77,345.014,175.284 C355.136,174.675,361.798,165.451,372.33,165.416 C384.166,165.378,387.563,177.821,397.591,182.127 C407.27,186.282,420.167,186.059,430.55,187.475"/>
    <path id="Path" style="fill:#382f93;fill-opacity:1;fill-rule:nonzero;opacity:1;stroke:#000000;stroke-linecap:round;stroke-linejoin:round;stroke-miterlimit:10;stroke-opacity:1;stroke-width:10;" d="M218.956,252.982 C211.898,254.666,201.361,255.19,195.493,259.752 C186.322,266.883,180.278,293.279,191.953,299.927 C225.421,318.984,255.786,293.934,241.615,264.142 C239.088,258.83,229.981,254.387,225.416,250.941"/>
    <path id="Path" style="fill:#382f93;fill-opacity:1;fill-rule:nonzero;opacity:1;stroke:#000000;stroke-linecap:round;stroke-linejoin:round;stroke-miterlimit:10;stroke-opacity:1;stroke-width:10;" d="M233.95,374.226 C226.892,375.91,216.355,376.434,210.487,380.996 C201.316,388.127,195.272,414.523,206.947,421.17 C240.415,440.228,270.779,415.178,256.609,385.386 C254.082,380.074,244.975,375.631,240.41,372.185"/>
    <path id="Path Copy" style="fill:#382f93;fill-opacity:1;fill-rule:nonzero;opacity:1;stroke:#000000;stroke-linecap:round;stroke-linejoin:round;stroke-miterlimit:10;stroke-opacity:1;stroke-width:10;" d="M346.243,318.596 C339.185,320.281,328.648,320.804,322.78,325.366 C313.609,332.497,307.565,358.893,319.24,365.541 C352.708,384.598,383.073,359.548,368.902,329.757 C366.375,324.445,357.268,320.001,352.703,316.556"/>
    <path id="Path Copy 1" style="fill:#382f93;fill-opacity:1;fill-rule:nonzero;opacity:1;stroke:#000000;stroke-linecap:round;stroke-linejoin:round;stroke-miterlimit:10;stroke-opacity:1;stroke-width:10;" d="M458.136,420.375 C451.079,422.06,440.541,422.583,434.674,427.145 C425.502,434.276,419.458,460.672,431.133,467.32 C464.602,486.378,494.966,461.327,480.795,431.536 C478.269,426.224,469.162,421.78,464.596,418.335"/>
    <path id="Path Copy 2" style="fill:#382f93;fill-opacity:1;fill-rule:nonzero;opacity:1;stroke:#000000;stroke-linecap:round;stroke-linejoin:round;stroke-miterlimit:10;stroke-opacity:1;stroke-width:10;" d="M538.882,290.781 C531.824,292.466,521.287,292.989,515.419,297.551 C506.247,304.682,500.203,331.078,511.878,337.726 C545.347,356.784,575.711,331.733,561.541,301.942 C559.014,296.63,549.907,292.186,545.342,288.741"/>
  </g>
</svg>
