<?xml version="1.0" encoding="utf-8"?>
<svg x="0px" y="0px" width="800px" height="800px" viewBox="0 0 800 800" xmlns="http://www.w3.org/2000/svg" xmlns:xlink="http://www.w3.org/1999/xlink">
  <!--Generated by AMDN-->
  <g id="Layer 1">
    <linearGradient x1="481.082" y1="825.365" x2="524.459" y2="894.883" gradientUnits="userSpaceOnUse" id="am2">
      <stop style="stop-color:#e29d00;stop-opacity:1;"/>
      <stop offset="1" style="stop-color:#ffffff;stop-opacity:1;"/>
    </linearGradient>
    <g id="Path">
      <path style="fill:url(#am2);fill-opacity:1;fill-rule:nonzero;opacity:1;stroke:none;" d="M126.073,394.948 C153.008,388.058,180.097,381.317,206.447,372.521 C217.477,368.839,225.871,361.3,237.492,358.489 C255.646,354.097,275.749,360.151,293.463,355.36 C321.83,347.687,358.156,329.744,388.063,334.612 C400.914,336.704,398.594,360.849,408.317,368.319 C419.006,376.532,441.216,376.557,449.257,385.519 C453.319,390.046,451.895,400.372,453.758,406.111 C466.368,444.946,490.775,493.359,477.43,535.867 C475.481,542.077,465.162,546.836,460.838,551.674 C456.71,556.292,457.509,563.114,453.363,567.394 C435.289,586.056,406.187,576.023,383.99,576.023 C345.429,576.023,304.216,580.214,265.928,575.835 C254.39,574.515,243.559,566.105,232.351,562.957 C219.788,559.428,207.139,561.867,194.778,559.003 C183.013,556.277,172.532,549.578,160.861,546.518 C123.386,536.693,104.102,575.673,88.3775,562.849 C64.707,543.545,98.3891,512.448,102.414,494.028 C113.551,443.066,43.2275,422.196,130.313,386.47"/>
      <path style="fill:none;opacity:1;stroke:#000000;stroke-linecap:round;stroke-linejoin:round;stroke-miterlimit:10;stroke-opacity:1;stroke-width:10;" d="M126.073,394.948 C153.008,388.058,180.097,381.317,206.447,372.521 C217.477,368.839,225.871,361.3,237.492,358.489 C255.646,354.097,275.749,360.151,293.463,355.36 C321.83,347.687,358.156,329.744,388.063,334.612 C400.914,336.704,398.594,360.849,408.317,368.319 C419.006,376.532,441.216,376.557,449.257,385.519 C453.319,390.046,451.895,400.372,453.758,406.111 C466.368,444.946,490.775,493.359,477.43,535.867 C475.481,542.077,465.162,546.836,460.838,551.674 C456.71,556.292,457.509,563.114,453.363,567.394 C435.289,586.056,406.187,576.023,383.99,576.023 C345.429,576.023,304.216,580.214,265.928,575.835 C254.39,574.515,243.559,566.105,232.351,562.957 C219.788,559.428,207.139,561.867,194.778,559.003 C183.013,556.277,172.532,549.578,160.861,546.518 C123.386,536.693,104.102,575.673,88.3775,562.849 C64.707,543.545,98.3891,512.448,102.414,494.028 C113.551,443.066,43.2275,422.196,130.313,386.47"/>
    </g>
    <linearGradient x1="495.541" y1="557.867" x2="457.168" y2="656.301" gradientUnits="userSpaceOnUse" id="am4">
      <stop style="stop-color:#c27c00;stop-opacity:1;"/>
      <stop offset="1" style="stop-color:#ffffff;stop-opacity:1;"/>
    </linearGradient>
    <g id="Path">
      <path style="fill:url(#am4);fill-opacity:1;fill-rule:nonzero;opacity:1;stroke:none;" d="M476.687,412.636 C495.316,397.582,501.325,401.457,519.086,392.566 C527.766,388.222,534.154,380.025,543.222,376.518 C576.166,363.778,614.143,384.282,647.058,387.092 C666.467,388.749,690.984,377.471,709.201,387.626 C718.671,392.904,716.655,420.11,717.545,429.798 C720.985,467.231,737.302,486.086,727.387,526.443 C726.07,531.804,726.706,539.483,723.505,544.138 C720.312,548.781,712.448,550.271,707.744,552.926 C661.112,579.241,602.981,580.39,550.091,576.483 C534.329,575.319,503.878,577.672,494.881,561.305 C481.831,537.565,499.32,473.71,497.684,445.905 C496.615,427.736,481.762,423.13,472.884,404.77"/>
      <path style="fill:none;opacity:1;stroke:#000000;stroke-linecap:round;stroke-linejoin:round;stroke-miterlimit:10;stroke-opacity:1;stroke-width:10;" d="M476.687,412.636 C495.316,397.582,501.325,401.457,519.086,392.566 C527.766,388.222,534.154,380.025,543.222,376.518 C576.166,363.778,614.143,384.282,647.058,387.092 C666.467,388.749,690.984,377.471,709.201,387.626 C718.671,392.904,716.655,420.11,717.545,429.798 C720.985,467.231,737.302,486.086,727.387,526.443 C726.07,531.804,726.706,539.483,723.505,544.138 C720.312,548.781,712.448,550.271,707.744,552.926 C661.112,579.241,602.981,580.39,550.091,576.483 C534.329,575.319,503.878,577.672,494.881,561.305 C481.831,537.565,499.32,473.71,497.684,445.905 C496.615,427.736,481.762,423.13,472.884,404.77"/>
    </g>
    <path id="Path" style="fill:#e27c00;fill-opacity:1;fill-rule:nonzero;opacity:1;stroke:#000000;stroke-linecap:round;stroke-linejoin:round;stroke-miterlimit:10;stroke-opacity:1;stroke-width:10;" d="M197.487,301.532 C202.896,311.223,207.371,321.815,216.797,328.29 C255.701,355.014,371.743,314.423,411.307,324.784 C422.416,327.693,429.075,342.422,437.071,349.699 C439.179,351.617,486.792,375.591,488.696,375.893 C511.148,379.458,536.891,365.913,556.714,356.995 C560.412,355.332,575.895,355.146,576.721,351.671 C578.263,345.182,576.135,336.179,575.768,329.525 C575.337,321.722,576.559,311.244,573.877,303.877 C561.199,269.059,484.506,238.875,462.936,216.041 C455.017,207.658,457.688,195.192,452.099,185.627 C443.816,171.454,394.005,138.875,377.943,141.298 C366.304,143.053,308.513,190.601,301.223,201.717 C295.057,211.119,299.34,225.425,289.82,232.593 C269.62,247.801,200.451,254.573,196.843,281.797 C196.107,287.346,198.72,294.368,199.743,299.84"/>
    <path id="Path" style="fill:none;opacity:1;stroke:#000000;stroke-linecap:round;stroke-linejoin:round;stroke-miterlimit:10;stroke-opacity:1;stroke-width:10;" d="M315.519,398.996 C360.41,419.196,329.499,437.202,395.659,437.202"/>
    <path id="Path" style="fill:none;opacity:1;stroke:#000000;stroke-linecap:round;stroke-linejoin:round;stroke-miterlimit:10;stroke-opacity:1;stroke-width:10;" d="M354.8,210.931 C348.778,233.922,343.287,242.158,324.103,256.195"/>
    <path id="Path" style="fill:none;opacity:1;stroke:#000000;stroke-linecap:round;stroke-linejoin:round;stroke-miterlimit:10;stroke-opacity:1;stroke-width:10;" d="M547.306,415.403 C578.225,431.259,581.815,414.364,614.183,417.623 C631.283,419.345,641.905,429.818,671.134,431.012"/>
    <path id="Path" style="fill:none;opacity:1;stroke:#000000;stroke-linecap:round;stroke-linejoin:round;stroke-miterlimit:10;stroke-opacity:1;stroke-width:10;" d="M536.38,465.871 C542.86,491.254,549.358,500.368,571.239,514.778"/>
    <path id="Path" style="fill:none;opacity:1;stroke:#000000;stroke-linecap:round;stroke-linejoin:round;stroke-miterlimit:10;stroke-opacity:1;stroke-width:10;" d="M669.573,486.682 C647.661,486.682,632.029,486.188,611.821,477.317"/>
    <path id="Path" style="fill:none;opacity:1;stroke:#000000;stroke-linecap:round;stroke-linejoin:round;stroke-miterlimit:10;stroke-opacity:1;stroke-width:10;" d="M200.435,435.131 C292.524,430.847,258.88,457.065,318.425,474.511 C340.779,481.06,367.727,477.428,390.77,477.428"/>
    <path id="Path" style="fill:none;opacity:1;stroke:#000000;stroke-linecap:round;stroke-linejoin:round;stroke-miterlimit:10;stroke-opacity:1;stroke-width:10;" d="M163.243,500.035 C199.753,489.716,203.369,495.885,236.897,510.973"/>
    <path id="Path" style="fill:none;opacity:1;stroke:#000000;stroke-linecap:round;stroke-linejoin:round;stroke-miterlimit:10;stroke-opacity:1;stroke-width:10;" d="M401.996,193.024 C402.264,205.074,404.27,217.694,403.216,229.684 C402.874,233.563,388.428,268.859,386.004,270.755 C381.347,274.4,350.548,284.263,340.517,289.756"/>
    <path id="Path" style="fill:none;opacity:1;stroke:#000000;stroke-linecap:round;stroke-linejoin:round;stroke-miterlimit:10;stroke-opacity:1;stroke-width:10;" d="M462.615,279.438 C460.421,309.606,453.583,318.108,478.952,337.908"/>
  </g>
</svg>
