<?xml version="1.0" encoding="utf-8"?>
<svg x="0px" y="0px" width="800px" height="800px" viewBox="0 0 800 800" xmlns="http://www.w3.org/2000/svg" xmlns:xlink="http://www.w3.org/1999/xlink">
  <!--Generated by AMDN-->
  <g id="Layer 1">
    <path id="Path" style="fill:#aaaaaa;fill-opacity:1;fill-rule:nonzero;opacity:1;stroke:#000000;stroke-linecap:round;stroke-linejoin:round;stroke-miterlimit:10;stroke-opacity:1;stroke-width:10;" d="M395.486,276.236 C401.565,273.394,410.358,271.761,414.914,265.969 C423.653,254.862,425.309,221.719,410.02,207.906 C379.782,180.588,326.406,204.238,323.093,245.987 C322.188,257.397,325.249,268.867,329.339,280.472 C345.617,326.658,384.811,302.665,402.896,291.771"/>
    <path id="Path Copy" style="fill:#aaaaaa;fill-opacity:1;fill-rule:nonzero;opacity:1;stroke:#000000;stroke-linecap:round;stroke-linejoin:round;stroke-miterlimit:10;stroke-opacity:1;stroke-width:10;" d="M369.022,546.42 C373.883,551.045,378.609,558.638,385.663,560.771 C399.19,564.86,430.658,554.323,437.948,535.051 C452.367,496.936,410.891,455.851,370.807,467.982 C359.851,471.298,350.286,478.329,340.969,486.367 C303.892,518.358,340.52,546.111,357.255,558.983"/>
    <path id="Path" style="fill:#aaaaaa;fill-opacity:1;fill-rule:nonzero;opacity:1;stroke:#000000;stroke-linecap:round;stroke-linejoin:round;stroke-miterlimit:10;stroke-opacity:1;stroke-width:10;" d="M593.531,285.625 C587.393,277.452,581.342,265.884,573.113,259.746 C543.114,237.367,402.12,217.176,400.035,273.91 C397.849,333.359,499.514,424.994,558.929,411.345 C594.223,403.238,625.374,344.489,616.309,309.328 C611.796,291.824,594.475,276.832,582.908,263.793"/>
    <path id="Path Copy" style="fill:#aaaaaa;fill-opacity:1;fill-rule:nonzero;opacity:1;stroke:#000000;stroke-linecap:round;stroke-linejoin:round;stroke-miterlimit:10;stroke-opacity:1;stroke-width:10;" d="M168.356,426.878 C169.876,434.073,170.131,443.444,173.876,449.966 C187.534,473.743,281.847,530.369,303.461,494.216 C326.108,456.333,285.426,365.511,237.827,356.02 C209.552,350.381,166.307,378.867,160.366,404.471 C157.408,417.217,164.559,432.289,168.262,444.317"/>
    <path id="Path Copy 1" style="fill:#aaaaaa;fill-opacity:1;fill-rule:nonzero;opacity:1;stroke:#000000;stroke-linecap:round;stroke-linejoin:round;stroke-miterlimit:10;stroke-opacity:1;stroke-width:10;" d="M503.015,525.518 C510.293,526.578,519.175,529.578,526.589,528.316 C553.62,523.717,639.349,454.78,612.891,422.005 C585.167,387.662,485.882,394.455,460.528,435.842 C445.466,460.427,457.254,510.852,479.228,525.274 C490.167,532.454,506.781,530.951,519.348,531.633"/>
    <path id="Path Copy" style="fill:#aaaaaa;fill-opacity:1;fill-rule:nonzero;opacity:1;stroke:#000000;stroke-linecap:round;stroke-linejoin:round;stroke-miterlimit:10;stroke-opacity:1;stroke-width:10;" d="M219.636,273.229 C211.666,279.401,199.852,285.704,194.298,294.213 C183.648,310.531,185.196,346.531,207.65,353.227 C252.06,366.471,322.193,313.65,321.917,267.666 C321.842,255.099,316.346,244.529,309.43,234.351 C281.907,193.846,231.169,239.659,207.737,260.61"/>
    <path id="Path" style="fill:#00baff;fill-opacity:1;fill-rule:nonzero;opacity:1;stroke:#000000;stroke-linecap:round;stroke-linejoin:round;stroke-miterlimit:10;stroke-opacity:1;stroke-width:10;" d="M260.655,355.318 C285.74,351.327,292.474,347.593,308.936,327.969 C314.009,321.922,317.205,314.096,321.268,307.373 C322.097,306.003,321.809,301.111,323.396,300.847 C327.116,300.229,336.97,308.401,340.827,310.027 C353.4,315.326,389.216,320.742,398.668,309.225 C398.678,316.134,403.466,321.759,405.688,328.156 C411.996,346.322,423.13,377.963,442.313,386.858 C450.543,390.674,468.13,388.176,479.6,392.301 C476.179,396.163,471.427,398.805,468.332,402.882 C457.707,416.879,451.55,434.801,439.071,447.536 C424.052,462.863,372.348,475.174,352.692,464.949 C343.593,460.217,342.713,449.038,334.96,442.846 C329.002,438.088,319.172,438.749,314.399,432.626 C308.301,424.802,314.163,412.432,310.027,403.718 C301.021,384.744,280.172,370.04,263.603,358.266"/>
    <linearGradient x1="264.795" y1="410.309" x2="89.3069" y2="659.916" gradientUnits="userSpaceOnUse" id="am2">
      <stop style="stop-color:#00baff;stop-opacity:1;"/>
      <stop offset="1" style="stop-color:#00baff;stop-opacity:0;"/>
    </linearGradient>
    <g id="Path">
      <path style="fill:url(#am2);fill-opacity:1;fill-rule:nonzero;opacity:1;stroke:none;" d="M145.475,640.613 C153.39,624.934,164.748,612.177,173.461,596.971 C176.518,591.635,179.902,580.015,184.684,576.387 C191.008,571.59,204.092,576.804,211.474,573.024 C221.22,568.034,226.972,557.879,236.67,553.336 C280.072,533.006,301.366,536.92,341.841,499.912 C346.384,495.757,344.176,485.526,345.483,479.92 C352.072,451.667,347.149,428.141,314.375,421.606 C316.415,437.586,324.704,467.797,320.394,482.675 C318.894,487.854,312.744,493.697,309.261,497.744 C287.76,522.729,259.891,520.711,229.069,519.412 C222.686,519.143,214.684,517.887,208.437,519.406 C188.616,524.225,175.647,540.503,164.308,555.766 C164.501,556.583,167.739,562.35,167.564,566.896 C167.365,572.061,141.431,593.67,136.425,599.49 C125.158,612.588,121.557,624.685,121.557,641.66"/>
      <path style="fill:none;opacity:1;stroke:#000000;stroke-linecap:round;stroke-linejoin:round;stroke-miterlimit:10;stroke-opacity:1;stroke-width:10;" d="M145.475,640.613 C153.39,624.934,164.748,612.177,173.461,596.971 C176.518,591.635,179.902,580.015,184.684,576.387 C191.008,571.59,204.092,576.804,211.474,573.024 C221.22,568.034,226.972,557.879,236.67,553.336 C280.072,533.006,301.366,536.92,341.841,499.912 C346.384,495.757,344.176,485.526,345.483,479.92 C352.072,451.667,347.149,428.141,314.375,421.606 C316.415,437.586,324.704,467.797,320.394,482.675 C318.894,487.854,312.744,493.697,309.261,497.744 C287.76,522.729,259.891,520.711,229.069,519.412 C222.686,519.143,214.684,517.887,208.437,519.406 C188.616,524.225,175.647,540.503,164.308,555.766 C164.501,556.583,167.739,562.35,167.564,566.896 C167.365,572.061,141.431,593.67,136.425,599.49 C125.158,612.588,121.557,624.685,121.557,641.66"/>
    </g>
    <linearGradient x1="402.113" y1="530.647" x2="596.813" y2="745.312" gradientUnits="userSpaceOnUse" id="am4">
      <stop style="stop-color:#00baff;stop-opacity:1;"/>
      <stop offset="1" style="stop-color:#00baff;stop-opacity:0;"/>
    </linearGradient>
    <g id="Path">
      <path style="fill:url(#am4);fill-opacity:1;fill-rule:nonzero;opacity:1;stroke:none;" d="M618.891,740.151 C608.603,743.166,595.25,750.182,584.428,749.203 C572.696,748.14,564.299,737.615,553.319,734.52 C543.646,731.792,533.007,733.031,523.301,730.25 C492.898,721.537,449.725,693.473,451.794,657.058 C453.615,625.014,493.297,606.473,494.164,573.671 C495.077,539.173,471.957,513.814,457.332,485.356 C452.969,476.864,451.501,459.727,441.663,455.095 C439.565,454.107,414.92,461.715,410.084,465.507 C418.729,474.551,430.262,482.653,436.24,493.697 C440.571,501.697,440.412,513.175,441.929,522.037 C445.609,543.549,455.599,588.677,447.513,608.612 C436.297,636.266,390.312,679.113,406.332,712.414 C410.737,721.572,423.869,724.781,431.981,729.562 C440.016,734.297,446.538,741.341,454.904,745.53 C468.454,752.316,484.682,755.057,498.896,760.69"/>
      <path style="fill:none;opacity:1;stroke:#000000;stroke-linecap:round;stroke-linejoin:round;stroke-miterlimit:10;stroke-opacity:1;stroke-width:10;" d="M618.891,740.151 C608.603,743.166,595.25,750.182,584.428,749.203 C572.696,748.14,564.299,737.615,553.319,734.52 C543.646,731.792,533.007,733.031,523.301,730.25 C492.898,721.537,449.725,693.473,451.794,657.058 C453.615,625.014,493.297,606.473,494.164,573.671 C495.077,539.173,471.957,513.814,457.332,485.356 C452.969,476.864,451.501,459.727,441.663,455.095 C439.565,454.107,414.92,461.715,410.084,465.507 C418.729,474.551,430.262,482.653,436.24,493.697 C440.571,501.697,440.412,513.175,441.929,522.037 C445.609,543.549,455.599,588.677,447.513,608.612 C436.297,636.266,390.312,679.113,406.332,712.414 C410.737,721.572,423.869,724.781,431.981,729.562 C440.016,734.297,446.538,741.341,454.904,745.53 C468.454,752.316,484.682,755.057,498.896,760.69"/>
    </g>
  </g>
</svg>
