<?xml version="1.0" encoding="utf-8"?>
<svg x="0px" y="0px" width="800px" height="800px" viewBox="0 0 800 800" xmlns="http://www.w3.org/2000/svg" xmlns:xlink="http://www.w3.org/1999/xlink">
  <!--Generated by AMDN-->
  <g id="Layer 1">
    <path id="Path" style="fill:#00b136;fill-opacity:1;fill-rule:nonzero;opacity:1;stroke:#000000;stroke-linecap:round;stroke-linejoin:round;stroke-miterlimit:10;stroke-opacity:1;stroke-width:10;" d="M208.773,690.69 C205.43,603.777,184.774,521.935,165.474,437.668 C149.433,367.629,138.41,300.043,107.964,234.338 C130.684,267.893,163.074,292.683,183.701,328.103 C197.561,351.904,251.366,514.771,256.108,543.328 C262.461,581.586,259.72,623.744,259.72,662.506"/>
    <path id="Path" style="fill:#6bc553;fill-opacity:1;fill-rule:nonzero;opacity:1;stroke:#000000;stroke-linecap:round;stroke-linejoin:round;stroke-miterlimit:10;stroke-opacity:1;stroke-width:10;" d="M296.575,615.354 C294.867,531.701,302.932,449.221,278.516,367.716 C254.569,287.778,200,221.733,171.376,144.368 C178.485,159.606,196.395,167.728,206.99,180.256 C222.638,198.76,233.205,221.422,247.507,241.012 C260.565,258.898,277.88,273.548,288.75,293.094 C327.265,362.352,343.728,524.135,343.728,604.514"/>
    <path id="Path" style="fill:#6bc454;fill-opacity:1;fill-rule:nonzero;opacity:1;stroke:#000000;stroke-linecap:round;stroke-linejoin:round;stroke-miterlimit:10;stroke-opacity:1;stroke-width:10;" d="M378.415,646.247 C383.473,593.647,392.785,541.49,397.442,488.984 C400.352,456.173,397.278,422.805,399.488,389.868 C402.445,345.782,413.582,301.778,423.424,258.845 C433.94,212.976,446.56,146.219,481.934,112.391 C497.118,156.464,484.333,246.616,479.429,294.111 C469.42,391.025,449.56,563.404,464.591,655.46"/>
    <path id="Path" style="fill:#8cc63f;fill-opacity:1;fill-rule:nonzero;opacity:1;stroke:#000000;stroke-linecap:round;stroke-linejoin:round;stroke-miterlimit:10;stroke-opacity:1;stroke-width:10;" d="M520.415,653.834 C516.688,613.776,520.957,574.572,520.957,534.515 C520.957,453.04,516.537,371.101,502.53,290.704 C507.444,305.089,521.036,317.555,528.94,330.535 C539.715,348.231,547.183,369.215,553.469,388.854 C582.594,479.851,580.034,574.202,580.034,668.468"/>
    <path id="Path" style="fill:#6bc454;fill-opacity:1;fill-rule:nonzero;opacity:1;stroke:#000000;stroke-linecap:round;stroke-linejoin:round;stroke-miterlimit:10;stroke-opacity:1;stroke-width:10;" d="M316.975,358.627 C329.587,282.341,334.288,209.765,366.221,137.912 C369.701,130.083,370.712,121.232,375.84,114.162 C393.129,248.946,365.308,492.227,367.927,627.558"/>
    <path id="Path" style="fill:#8cc63f;fill-opacity:1;fill-rule:nonzero;opacity:1;stroke:#000000;stroke-linecap:round;stroke-linejoin:round;stroke-miterlimit:10;stroke-opacity:1;stroke-width:10;" d="M558.363,384.795 C563.788,350.546,577.803,319.086,586.866,285.775 C595.327,254.679,598.506,222.395,606.798,191.387 C609.863,179.923,624.444,132.037,631.796,135.691 C638.05,138.799,638.732,159.623,639.475,165.672 C643.336,197.076,623.465,232.201,617.191,262.734 C609.112,302.043,616.313,341.261,615.95,380.848 C615.155,467.534,586.172,593.76,599.166,679.831"/>
  </g>
</svg>
