<?xml version="1.0" encoding="utf-8"?>
<svg x="0px" y="0px" width="800px" height="800px" viewBox="0 0 800 800" xmlns="http://www.w3.org/2000/svg" xmlns:xlink="http://www.w3.org/1999/xlink">
  <!--Generated by AMDN-->
  <g id="Layer 1">
    <path id="Path" style="fill:#8c6238;fill-opacity:1;fill-rule:nonzero;opacity:1;stroke:#000000;stroke-linecap:round;stroke-linejoin:round;stroke-miterlimit:10;stroke-opacity:1;stroke-width:10;" d="M139.808,375.753 C271.096,321.316,393.542,245.217,529.501,202.921 C579.499,187.367,619.875,142.201,663.272,193.097 C672.1,203.45,684.686,214.507,689.251,227.728 C692.707,237.738,704.201,308.815,699.925,315.046 C697.253,318.938,671.26,321.463,665.018,324.217 C629.617,339.832,601.845,366.774,567.039,383.302 C519.349,405.947,478.307,440.804,428.424,459.541 C345.151,490.821,255.694,504.971,178.14,549.566"/>
    <path id="Path" style="fill:#603812;fill-opacity:1;fill-rule:nonzero;opacity:1;stroke:#000000;stroke-linecap:round;stroke-linejoin:round;stroke-miterlimit:10;stroke-opacity:1;stroke-width:10;" d="M162.491,544.542 C149.535,535.678,138.151,526.866,128.745,514.074 C109.849,488.375,91.8741,428.721,108.889,398.897 C113.393,391.003,120.183,384.332,129.824,383.249 C152.567,380.693,155.127,398.677,165.467,417.775 C186.348,456.342,188.009,495.256,173.38,537.056"/>
    <path id="Path" style="fill:none;opacity:1;stroke:#000000;stroke-linecap:round;stroke-linejoin:round;stroke-miterlimit:10;stroke-opacity:1;stroke-width:10;" d="M126.305,403.495 C122.308,408.592,120.362,413.536,118.097,419.559"/>
    <path id="Path" style="fill:none;opacity:1;stroke:#000000;stroke-linecap:round;stroke-linejoin:round;stroke-miterlimit:10;stroke-opacity:1;stroke-width:10;" d="M122.684,462.244 C124.835,467.689,125.928,473.508,128.681,478.698 C131.15,483.351,135.105,487.213,137.826,491.753 C140.334,495.935,142.678,501.934,146.522,505.054 C149.772,507.691,154.239,508.528,158.118,509.853"/>
    <path id="Path" style="fill:none;opacity:1;stroke:#000000;stroke-linecap:round;stroke-linejoin:round;stroke-miterlimit:10;stroke-opacity:1;stroke-width:10;" d="M158.185,442.832 C159.818,449.678,161.45,456.524,163.083,463.37 C163.9,466.793,165.347,470.571,165.475,474.094 C165.635,478.474,163.773,483.252,162.75,487.467"/>
    <path id="Path" style="fill:none;opacity:1;stroke:#000000;stroke-linecap:round;stroke-linejoin:round;stroke-miterlimit:10;stroke-opacity:1;stroke-width:10;" d="M134.242,423.005 C132.165,431.894,131.581,438.649,133.545,447.614"/>
    <path id="Path" style="fill:none;opacity:1;stroke:#000000;stroke-linecap:round;stroke-linejoin:round;stroke-miterlimit:10;stroke-opacity:1;stroke-width:10;" d="M150.077,462.885 C151.631,470.041,150.602,473.471,145.771,478.991"/>
    <path id="Path" style="fill:none;opacity:1;stroke:#000000;stroke-linecap:round;stroke-linejoin:round;stroke-miterlimit:10;stroke-opacity:1;stroke-width:10;" d="M234.866,398.452 C285.687,385.828,325.961,331.509,382.019,354.68"/>
    <path id="Path" style="fill:none;opacity:1;stroke:#000000;stroke-linecap:round;stroke-linejoin:round;stroke-miterlimit:10;stroke-opacity:1;stroke-width:10;" d="M421.768,419.427 C455.743,402.25,488.226,382.5,522.573,365.676"/>
    <path id="Path" style="fill:none;opacity:1;stroke:#000000;stroke-linecap:round;stroke-linejoin:round;stroke-miterlimit:10;stroke-opacity:1;stroke-width:10;" d="M506.513,307.204 C530.255,302.849,553.892,298.066,577.54,293.228"/>
  </g>
</svg>
