<?xml version="1.0" encoding="utf-8"?>
<svg x="0px" y="0px" width="800px" height="800px" viewBox="0 0 800 800" xmlns="http://www.w3.org/2000/svg" xmlns:xlink="http://www.w3.org/1999/xlink">
  <!--Generated by AMDN-->
  <g id="Layer 1">
    <linearGradient x1="444.654" y1="752.771" x2="424.24" y2="878.134" gradientUnits="userSpaceOnUse" id="am2">
      <stop style="stop-color:#8c6238;stop-opacity:1;"/>
      <stop offset="1" style="stop-color:#ffffff;stop-opacity:1;"/>
    </linearGradient>
    <g id="Path">
      <path style="fill:url(#am2);fill-opacity:1;fill-rule:nonzero;opacity:1;stroke:none;" d="M306.517,614.461 C306.517,658.395,302.826,701.931,302.954,745.807 C302.961,748.248,302.27,753.093,305.091,754.394 C311.828,757.502,395.757,749.186,410.956,749.186 C419.792,749.186,484.27,750.256,486.384,747.372 C490.997,741.077,473.052,633.85,472.607,615.173"/>
      <path style="fill:none;opacity:1;stroke:#000000;stroke-linecap:round;stroke-linejoin:round;stroke-miterlimit:10;stroke-opacity:1;stroke-width:10;" d="M306.517,614.461 C306.517,658.395,302.826,701.931,302.954,745.807 C302.961,748.248,302.27,753.093,305.091,754.394 C311.828,757.502,395.757,749.186,410.956,749.186 C419.792,749.186,484.27,750.256,486.384,747.372 C490.997,741.077,473.052,633.85,472.607,615.173"/>
    </g>
    <g id="Path">
      <path style="fill:#009136;fill-opacity:1;fill-rule:nonzero;opacity:1;stroke:none;" d="M374.236,66.2932 C336.939,139.022,277.471,182.337,233.096,240.937 C252.446,240.937,322.122,240.659,323.402,245.184 C325.963,254.237,295.162,282.2,289.719,290 C258.85,334.243,206.833,403.809,163.951,435.54 C199.371,442.453,241.879,436.253,278.004,436.253 C224.557,453.731,143.422,561.564,101.505,600.299 C95.5205,605.829,87.6927,605.871,81.9756,610.896 C106.651,620.741,202.733,615.173,234.291,615.173 C292.722,615.173,348.557,626.748,406.418,629.317 C450.589,631.277,497.302,624.785,541.055,630.623 C586.896,636.739,627.103,641.063,670.667,624.187 C674.732,622.612,683.037,622.581,685.433,618.454 C696.297,599.747,653.414,577.777,642.686,569.248 C603.942,538.444,524.908,451.845,488.29,432.689 C521.498,422.744,612.364,431.976,651.528,431.976 C651.408,410.832,614.874,383.649,599.641,370.955 C547.963,327.891,496.495,284.32,449.084,236.66 C451.929,247.72,526.65,243.644,539.934,242.215 C542.484,241.94,544.601,241.123,545.007,238.311 C546.912,225.132,510.963,197.273,502.426,186.932 C460.229,135.815,420.297,83.9255,380.652,30.6516"/>
      <path style="fill:#000000;fill-opacity:1;fill-rule:nonzero;opacity:1;stroke:none;" d="M369.787,64.0115 C351.451,99.7666,327.611,128.4,302.641,155.527 C277.685,182.653,251.596,208.235,229.11,237.918 C227.953,239.445,227.787,241.533,228.618,243.162 C229.415,244.809,231.179,245.937,233.096,245.937 C242.779,245.937,264.999,245.868,284.901,246.362 C294.844,246.608,304.219,246.998,311.04,247.593 C314.438,247.886,317.221,248.242,318.939,248.6 C319.785,248.768,320.379,248.961,320.449,248.999 C320.442,248.995,320.455,249.001,320.443,248.996 C320.431,248.99,320.409,248.979,320.375,248.96 C320.307,248.922,320.19,248.855,320.016,248.721 C319.702,248.461,318.991,247.876,318.591,246.545 C318.527,246.309,318.57,246.276,318.543,246.485 C318.52,246.689,318.428,247.107,318.223,247.657 C317.82,248.766,316.975,250.374,315.794,252.183 C313.431,255.824,309.77,260.293,305.82,264.746 C301.865,269.209,297.618,273.686,293.988,277.563 C292.172,279.504,290.51,281.295,289.096,282.886 C287.677,284.487,286.524,285.849,285.618,287.139 C270.236,309.187,249.58,337.546,227.486,364.277 C205.411,391.001,181.823,416.115,160.977,431.521 C159.374,432.706,158.631,434.783,159.074,436.641 C159.472,438.509,161.035,440.066,162.993,440.447 C181.349,444.023,201.17,444.171,220.888,443.486 C240.6,442.792,260.222,441.249,278.004,441.253 C277.486,438.002,276.968,434.751,276.45,431.5 C262.025,436.252,246.613,446.605,230.568,459.973 C214.548,473.351,197.977,489.797,181.801,506.865 C165.63,523.931,149.863,541.617,135.545,557.427 C121.235,573.231,108.346,587.175,98.1113,596.627 C95.9437,598.639,93.2355,599.816,89.8278,601.127 C86.4777,602.453,82.4191,603.873,78.6746,607.141 C77.3543,608.293,76.7487,610.087,77.0478,611.743 C77.3186,613.404,78.4881,614.893,80.1228,615.54 C83.7928,616.995,88.2694,618.016,93.538,618.847 C98.7986,619.669,104.828,620.268,111.415,620.707 C124.584,621.582,139.985,621.807,155.578,621.727 C186.735,621.564,218.734,620.17,234.291,620.173 C292.053,620.15,347.806,631.696,406.196,634.312 C450.993,636.26,497.577,629.823,540.394,635.579 C563.349,638.639,585.094,641.293,606.777,641.026 C628.45,640.762,650.072,637.533,672.473,628.849 C672.967,628.649,674.058,628.369,675.371,628.102 C676.693,627.826,678.252,627.535,679.888,627.128 C681.526,626.714,683.249,626.198,684.978,625.313 C686.682,624.433,688.507,623.106,689.757,620.965 C691.596,617.834,692.375,614.329,692.145,611 C691.929,607.658,690.81,604.539,689.224,601.658 C686.02,595.906,680.946,590.862,675.352,586.189 C669.754,581.538,663.592,577.323,658.181,573.736 C652.792,570.171,648.072,567.158,645.798,565.334 C636.345,557.822,624.195,546.693,610.809,533.983 C597.415,521.268,582.76,506.958,568.146,492.986 C553.529,479.013,538.956,465.38,525.67,453.981 C512.358,442.576,500.432,433.42,490.607,428.258 C490.313,431.332,490.018,434.405,489.724,437.478 C497.248,435.205,508.906,433.89,522.491,433.378 C536.094,432.852,551.692,433.069,567.508,433.6 C599.169,434.659,631.613,436.97,651.528,436.976 C652.904,436.976,654.177,436.414,655.082,435.493 C655.993,434.579,656.542,433.301,656.528,431.947 C656.457,425.196,653.668,418.779,649.717,412.601 C645.737,406.424,640.466,400.431,634.783,394.757 C623.433,383.44,610.334,373.364,602.841,367.113 C551.183,324.068,499.838,280.592,452.629,233.134 C451.038,231.535,448.475,231.211,446.609,232.315 C444.708,233.357,443.679,235.727,444.241,237.906 C444.765,239.933,446.015,241.416,447.264,242.433 C448.539,243.465,449.908,244.166,451.39,244.77 C454.346,245.951,457.832,246.722,461.864,247.338 C469.898,248.548,480.066,249.023,490.55,249.12 C501.024,249.214,511.774,248.913,520.764,248.5 C529.766,248.085,536.947,247.563,540.469,247.186 C542.107,246.991,544.015,246.676,546.019,245.394 C547.002,244.755,547.958,243.831,548.651,242.704 C549.352,241.579,549.775,240.299,549.956,239.026 C550.357,236.127,549.726,233.438,548.717,230.886 C547.689,228.328,546.218,225.838,544.456,223.312 C540.928,218.279,536.193,213.098,531.184,208.038 C526.178,202.988,520.901,198.086,516.375,193.828 C511.865,189.594,508.049,185.91,506.282,183.749 C464.156,132.719,424.277,80.8981,384.663,27.6666 C383.015,25.4512,379.882,24.9918,377.667,26.6404 C375.452,28.289,374.992,31.4213,376.641,33.6366 C416.317,86.9529,456.301,138.911,498.57,190.115 C501.072,193.125,504.951,196.801,509.523,201.111 C514.079,205.397,519.27,210.223,524.081,215.077 C528.888,219.922,533.317,224.823,536.261,229.043 C537.734,231.144,538.826,233.072,539.432,234.601 C540.058,236.136,540.133,237.199,540.059,237.595 C540.054,237.627,540.05,237.645,540.049,237.65 C540.05,237.645,540.049,237.647,540.056,237.629 C540.068,237.594,540.1,237.518,540.152,237.433 C540.255,237.259,540.445,237.084,540.53,237.035 C540.551,237.021,540.566,237.013,540.572,237.009 C540.566,237.013,540.577,237.007,540.566,237.012 C540.543,237.022,540.484,237.045,540.386,237.073 C540.192,237.129,539.847,237.196,539.399,237.243 C536.279,237.581,529.138,238.105,520.305,238.51 C511.46,238.917,500.862,239.212,490.639,239.121 C480.426,239.033,470.551,238.543,463.359,237.451 C459.778,236.917,456.856,236.203,455.13,235.495 C454.269,235.154,453.729,234.811,453.59,234.688 C453.572,234.674,453.56,234.663,453.554,234.657 C453.548,234.651,453.556,234.66,453.551,234.655 C453.56,234.664,453.589,234.696,453.631,234.755 C453.715,234.869,453.849,235.108,453.926,235.414 C451.13,237.005,448.335,238.596,445.539,240.186 C493.153,288.048,544.743,331.715,596.44,374.796 C604.18,381.239,616.965,391.102,627.721,401.836 C633.09,407.188,637.927,412.749,641.307,418.012 C644.717,423.273,646.539,428.183,646.528,432.004 C648.195,430.328,649.861,428.652,651.528,426.976 C632.279,426.982,599.708,424.676,567.843,423.606 C551.896,423.072,536.102,422.846,522.105,423.386 C508.088,423.939,495.935,425.2,486.855,427.899 C484.902,428.479,483.474,430.257,483.312,432.212 C483.1,434.161,484.164,436.178,485.972,437.119 C494.456,441.535,506.141,450.388,519.158,461.571 C532.201,472.759,546.674,486.293,561.236,500.215 C575.8,514.138,590.457,528.45,603.924,541.235 C617.398,554.024,629.656,565.272,639.575,573.162 C642.664,575.603,647.327,578.534,652.657,582.072 C657.964,585.587,663.855,589.633,668.96,593.879 C674.07,598.103,678.35,602.593,680.467,606.488 C681.541,608.431,682.075,610.164,682.166,611.638 C682.243,613.123,681.987,614.398,681.11,615.943 C681.113,615.937,681.116,615.933,681.117,615.932 C681.116,615.933,681.115,615.934,681.11,615.94 C681.099,615.954,681.072,615.983,681.02,616.028 C680.918,616.116,680.712,616.263,680.396,616.425 C679.767,616.756,678.71,617.12,677.464,617.426 C676.216,617.739,674.787,618.01,673.333,618.312 C671.871,618.622,670.4,618.937,668.861,619.524 C647.698,627.716,627.434,630.763,606.653,631.027 C585.881,631.289,564.602,628.723,541.716,625.667 C497.027,619.747,450.184,626.295,406.64,624.322 C349.307,621.801,293.392,610.197,234.291,610.173 C218.29,610.176,186.469,611.567,155.526,611.727 C140.07,611.808,124.852,611.579,112.079,610.729 C105.696,610.305,99.9235,609.724,95.0833,608.967 C90.251,608.217,86.3272,607.259,83.8284,606.252 C84.3111,609.052,84.7938,611.852,85.2766,614.652 C87.2493,612.895,89.9632,611.781,93.4522,610.447 C96.8837,609.099,101.082,607.49,104.898,603.972 C115.622,594.056,128.594,579.995,142.957,564.14 C157.311,548.29,173.027,530.663,189.06,513.744 C205.089,496.826,221.443,480.617,236.977,467.649 C252.487,454.673,267.26,444.992,279.558,441.005 C281.873,440.255,283.359,437.793,282.943,435.472 C282.622,433.135,280.449,431.252,278.004,431.253 C259.66,431.256,239.966,432.814,220.538,433.492 C201.116,434.178,181.973,433.971,164.909,430.632 C165.581,433.608,166.253,436.584,166.925,439.559 C188.961,423.233,212.822,397.699,235.194,370.647 C257.546,343.602,278.333,315.056,293.82,292.861 C294.275,292.201,295.274,290.983,296.572,289.527 C297.875,288.06,299.492,286.316,301.289,284.397 C304.885,280.554,309.198,276.012,313.304,271.378 C317.415,266.733,321.313,262.027,324.176,257.635 C325.608,255.427,326.792,253.304,327.604,251.121 C328.007,250.025,328.319,248.906,328.469,247.701 C328.614,246.502,328.598,245.19,328.214,243.823 C327.733,242.209,326.809,241.351,326.155,240.827 C325.466,240.299,324.886,240.022,324.33,239.782 C323.23,239.327,322.176,239.062,320.957,238.805 C318.545,238.312,315.522,237.947,311.906,237.63 C304.698,237.004,295.205,236.615,285.149,236.365 C265.056,235.867,242.763,235.937,233.096,235.937 C234.425,238.61,235.753,241.283,237.082,243.955 C258.97,215.039,284.803,189.664,309.999,162.299 C335.181,134.936,359.724,105.548,378.686,68.5748 C379.946,66.1177,378.975,63.1042,376.518,61.8441 C374.061,60.584,371.048,61.5544,369.787,64.0115 z"/>
    </g>
    <path id="Path" style="fill:none;opacity:1;stroke:#000000;stroke-linecap:round;stroke-linejoin:round;stroke-miterlimit:10;stroke-opacity:1;stroke-width:10;" d="M275.544,426.325 C306.637,430.143,336.166,425.311,367.288,423.917 C399.325,422.482,431.559,423.399,463.626,423.399"/>
    <path id="Path" style="fill:none;opacity:1;stroke:#000000;stroke-linecap:round;stroke-linejoin:round;stroke-miterlimit:10;stroke-opacity:1;stroke-width:10;" d="M334.058,233.227 C365.781,243.801,400.288,240.041,433.533,239.496"/>
    <path id="Path" style="fill:none;opacity:1;stroke:#000000;stroke-linecap:round;stroke-linejoin:round;stroke-miterlimit:10;stroke-opacity:1;stroke-width:10;" d="M339.894,692.061 C334.388,710.983,332.427,729.513,332.427,748.593"/>
    <path id="Path" style="fill:none;opacity:1;stroke:#000000;stroke-linecap:round;stroke-linejoin:round;stroke-miterlimit:10;stroke-opacity:1;stroke-width:10;" d="M364.941,740.63 C364.941,731.652,365.212,722.763,365.724,713.8"/>
    <path id="Path" style="fill:none;opacity:1;stroke:#000000;stroke-linecap:round;stroke-linejoin:round;stroke-miterlimit:10;stroke-opacity:1;stroke-width:10;" d="M399.409,660.53 C398.78,671.062,398.626,681.511,398.626,692.061"/>
    <path id="Path" style="fill:none;opacity:1;stroke:#000000;stroke-linecap:round;stroke-linejoin:round;stroke-miterlimit:10;stroke-opacity:1;stroke-width:10;" d="M426.827,739.259 C422.799,725.16,420.147,714.256,428.002,701.266"/>
    <path id="Path" style="fill:none;opacity:1;stroke:#000000;stroke-linecap:round;stroke-linejoin:round;stroke-miterlimit:10;stroke-opacity:1;stroke-width:10;" d="M457.183,735.93 C457.397,725.884,457.04,716.006,457.771,705.966"/>
    <path id="Path" style="fill:none;opacity:1;stroke:#000000;stroke-linecap:round;stroke-linejoin:round;stroke-miterlimit:10;stroke-opacity:1;stroke-width:10;" d="M346.727,627.041 C349.038,638.599,348.945,648.107,347.119,659.747"/>
    <path id="Path" style="fill:none;opacity:1;stroke:#000000;stroke-linecap:round;stroke-linejoin:round;stroke-miterlimit:10;stroke-opacity:1;stroke-width:10;" d="M443.866,637.029 C443.866,637.029,443.082,654.655,443.082,654.655"/>
    <path id="Path" style="fill:none;opacity:1;stroke:#000000;stroke-linecap:round;stroke-linejoin:round;stroke-miterlimit:10;stroke-opacity:1;stroke-width:10;" d="M315.98,643.296 C318.1,653.901,318.349,662.552,316.763,673.26"/>
  </g>
</svg>
