<?xml version="1.0" encoding="utf-8"?>
<svg x="0px" y="0px" width="800px" height="800px" viewBox="0 0 800 800" xmlns="http://www.w3.org/2000/svg" xmlns:xlink="http://www.w3.org/1999/xlink">
  <!--Generated by AMDN-->
  <g id="Layer 1">
    <path id="Path" style="fill:none;opacity:1;stroke:#000000;stroke-linecap:round;stroke-linejoin:round;stroke-miterlimit:10;stroke-opacity:1;stroke-width:10;" d="M374.236,66.2932 C336.939,139.022,277.471,182.337,233.096,240.937 C252.446,240.937,322.122,240.659,323.402,245.184 C325.963,254.237,295.162,282.2,289.719,290 C258.85,334.243,206.833,403.809,163.951,435.54 C199.371,442.453,241.879,436.253,278.004,436.253 C224.557,453.731,143.422,561.564,101.505,600.299 C95.5205,605.829,87.6927,605.871,81.9756,610.896 C106.651,620.741,202.733,615.173,234.291,615.173 C292.722,615.173,348.557,626.748,406.418,629.317 C450.589,631.277,497.302,624.785,541.055,630.623 C586.896,636.739,627.103,641.063,670.667,624.187 C674.732,622.612,683.037,622.581,685.433,618.454 C696.297,599.747,653.414,577.777,642.686,569.248 C603.942,538.444,524.908,451.845,488.29,432.689 C521.498,422.744,612.364,431.976,651.528,431.976 C651.408,410.832,614.874,383.649,599.641,370.955 C547.963,327.891,496.495,284.32,449.084,236.66 C451.929,247.72,526.65,243.644,539.934,242.215 C542.484,241.94,544.601,241.123,545.007,238.311 C546.912,225.132,510.963,197.273,502.426,186.932 C460.229,135.815,420.297,83.9255,380.652,30.6516"/>
    <path id="Path" style="fill:none;opacity:1;stroke:#000000;stroke-linecap:round;stroke-linejoin:round;stroke-miterlimit:10;stroke-opacity:1;stroke-width:10;" d="M306.517,614.461 C306.517,658.395,302.826,701.931,302.954,745.807 C302.961,748.248,302.27,753.093,305.091,754.394 C311.828,757.502,395.757,749.186,410.956,749.186 C419.792,749.186,484.27,750.256,486.384,747.372 C490.997,741.077,473.052,633.85,472.607,615.173"/>
    <path id="Path" style="fill:none;opacity:1;stroke:#000000;stroke-linecap:round;stroke-linejoin:round;stroke-miterlimit:10;stroke-opacity:1;stroke-width:10;" d="M275.544,426.325 C306.637,430.143,336.166,425.311,367.288,423.917 C399.325,422.482,431.559,423.399,463.626,423.399"/>
    <path id="Path" style="fill:none;opacity:1;stroke:#000000;stroke-linecap:round;stroke-linejoin:round;stroke-miterlimit:10;stroke-opacity:1;stroke-width:10;" d="M334.058,233.227 C365.781,243.801,400.288,240.041,433.533,239.496"/>
    <path id="Path" style="fill:none;opacity:1;stroke:#000000;stroke-linecap:round;stroke-linejoin:round;stroke-miterlimit:10;stroke-opacity:1;stroke-width:10;" d="M329.493,750.227 C331.803,732.396,332.626,714.936,332.626,696.957"/>
    <path id="Path" style="fill:none;opacity:1;stroke:#000000;stroke-linecap:round;stroke-linejoin:round;stroke-miterlimit:10;stroke-opacity:1;stroke-width:10;" d="M364.941,740.63 C364.941,731.652,365.212,722.763,365.724,713.8"/>
    <path id="Path" style="fill:none;opacity:1;stroke:#000000;stroke-linecap:round;stroke-linejoin:round;stroke-miterlimit:10;stroke-opacity:1;stroke-width:10;" d="M399.409,660.53 C398.78,671.062,398.626,681.511,398.626,692.061"/>
    <path id="Path" style="fill:none;opacity:1;stroke:#000000;stroke-linecap:round;stroke-linejoin:round;stroke-miterlimit:10;stroke-opacity:1;stroke-width:10;" d="M426.827,739.259 C422.799,725.16,420.147,714.256,428.002,701.266"/>
    <path id="Path" style="fill:none;opacity:1;stroke:#000000;stroke-linecap:round;stroke-linejoin:round;stroke-miterlimit:10;stroke-opacity:1;stroke-width:10;" d="M457.183,735.93 C457.397,725.884,457.04,716.006,457.771,705.966"/>
    <path id="Path" style="fill:none;opacity:1;stroke:#000000;stroke-linecap:round;stroke-linejoin:round;stroke-miterlimit:10;stroke-opacity:1;stroke-width:10;" d="M346.727,627.041 C349.038,638.599,348.945,648.107,347.119,659.747"/>
    <path id="Path" style="fill:none;opacity:1;stroke:#000000;stroke-linecap:round;stroke-linejoin:round;stroke-miterlimit:10;stroke-opacity:1;stroke-width:10;" d="M443.866,637.029 C443.866,637.029,443.082,654.655,443.082,654.655"/>
    <path id="Path" style="fill:none;opacity:1;stroke:#000000;stroke-linecap:round;stroke-linejoin:round;stroke-miterlimit:10;stroke-opacity:1;stroke-width:10;" d="M315.98,643.296 C318.1,653.901,318.349,662.552,316.763,673.26"/>
  </g>
</svg>
