<?xml version="1.0" encoding="utf-8"?>
<svg x="0px" y="0px" width="800px" height="800px" viewBox="0 0 800 800" xmlns="http://www.w3.org/2000/svg" xmlns:xlink="http://www.w3.org/1999/xlink">
  <!--Generated by AMDN-->
  <g id="Layer 1">
    <path id="Path" style="fill:#aaaaaa;fill-opacity:1;fill-rule:nonzero;opacity:1;stroke:#000000;stroke-linecap:round;stroke-linejoin:round;stroke-miterlimit:10;stroke-opacity:1;stroke-width:10;" d="M178.665,502.006 C177.78,489.018,174.21,472.535,177.564,459.788 C188.674,417.568,249.371,400.956,274.121,370.779 C293.51,347.138,276.135,314.569,299.462,292.348 C340.371,253.376,375.065,268.568,420.463,250.203 C437.172,243.444,467.512,224.333,486.397,231.686 C491.363,233.619,496.609,243.436,500.058,247.563 C510.066,259.538,531.223,267.918,538.352,281.117 C542.777,289.312,540.509,299.656,546.704,307.55 C553.398,316.08,568.744,309.526,575.21,320.594 C589.534,345.112,577.29,378.357,589.466,403.345 C608.496,442.397,649.673,415.718,652.832,491.481 C577.01,486.318,500.301,513.297,422.2,517.548 C382.202,519.725,342.957,509.392,303.684,504.187 C269.334,499.635,234.411,498.475,199.838,496.255"/>
    <path id="Path" style="fill:none;opacity:1;stroke:#000000;stroke-linecap:round;stroke-linejoin:round;stroke-miterlimit:10;stroke-opacity:1;stroke-width:10;" d="M313.889,364.962 C319.093,377.537,323.522,383.524,335.884,389.409"/>
    <path id="Path" style="fill:none;opacity:1;stroke:#000000;stroke-linecap:round;stroke-linejoin:round;stroke-miterlimit:10;stroke-opacity:1;stroke-width:10;" d="M445.607,287.288 C459.455,295.534,466.972,295.109,482.454,291.348"/>
    <path id="Path" style="fill:none;opacity:1;stroke:#000000;stroke-linecap:round;stroke-linejoin:round;stroke-miterlimit:10;stroke-opacity:1;stroke-width:10;" d="M512.153,355.279 C517.861,370.292,521.776,385.54,525.883,401.076"/>
    <path id="Path" style="fill:none;opacity:1;stroke:#000000;stroke-linecap:round;stroke-linejoin:round;stroke-miterlimit:10;stroke-opacity:1;stroke-width:10;" d="M416.764,329.091 C416.764,329.091,398.213,343.58,398.213,343.58"/>
    <path id="Path" style="fill:none;opacity:1;stroke:#000000;stroke-linecap:round;stroke-linejoin:round;stroke-miterlimit:10;stroke-opacity:1;stroke-width:10;" d="M263.589,421.025 C243.051,429.118,238.588,438.041,240.858,459.751"/>
    <path id="Path" style="fill:none;opacity:1;stroke:#000000;stroke-linecap:round;stroke-linejoin:round;stroke-miterlimit:10;stroke-opacity:1;stroke-width:10;" d="M364.814,448.388 C364.814,448.388,376.475,458.179,376.475,458.179 C376.475,458.179,376.92,457.216,376.92,457.216 C394.006,469.302,419.065,463.721,438.287,460.711 C444.757,459.698,453.142,459.745,458.935,456.516 C463.793,453.807,467.253,446.936,470.537,442.554"/>
  </g>
</svg>
