<?xml version="1.0" encoding="utf-8"?>
<svg x="0px" y="0px" width="800px" height="800px" viewBox="0 0 800 800" xmlns="http://www.w3.org/2000/svg" xmlns:xlink="http://www.w3.org/1999/xlink">
  <!--Generated by AMDN-->
  <g id="Layer 1">
    <path id="Path" style="fill:#603812;fill-opacity:1;fill-rule:nonzero;opacity:1;stroke:#000000;stroke-linecap:round;stroke-linejoin:round;stroke-miterlimit:10;stroke-opacity:1;stroke-width:10;" d="M233.369,691.511 C246.719,668.452,286.893,614.295,310.25,601.02 C315.952,597.779,322.981,601.316,328.348,596.854 C335.386,591.002,337.049,580.893,345.384,576.095 C357.049,569.38,373.016,573.949,385.803,572.54 C421.822,568.57,466.189,549.76,495.736,583.571 C508.247,597.888,502.422,622.961,508.68,639.99 C517.519,664.044,527.76,644.099,532.071,691.511"/>
    <path id="Path" style="fill:#8cc63f;fill-opacity:1;fill-rule:nonzero;opacity:1;stroke:#000000;stroke-linecap:round;stroke-linejoin:round;stroke-miterlimit:10;stroke-opacity:1;stroke-width:10;" d="M368.543,569.018 C372.158,515.99,368.98,466.757,350.904,416.68 C343.992,397.528,333.663,379.247,323.731,361.531 C322.394,359.146,312.669,345.117,317.194,344.093 C344.708,337.87,359.934,368.284,371.783,386.803 C377.88,396.331,385.164,405.201,389.499,415.775 C408.423,461.929,408.098,519.255,408.098,568.405"/>
    <linearGradient x1="246.601" y1="184.086" x2="280.149" y2="-21.8249" gradientUnits="userSpaceOnUse" id="am2">
      <stop style="stop-color:#8cc63f;stop-opacity:1;"/>
      <stop offset="1" style="stop-color:#ffffff;stop-opacity:1;"/>
    </linearGradient>
    <g id="Path">
      <path style="fill:url(#am2);fill-opacity:1;fill-rule:nonzero;opacity:1;stroke:none;" d="M382.72,396.689 C390.074,378.042,413.486,343.341,429.444,333.531 C439.11,327.588,450.878,325.818,461.541,323.385 C470.574,321.325,480.868,318.436,490.128,320.12 C493.471,320.728,495.893,324.646,498.902,326.281 C505.795,330.025,513.656,330.793,520.534,334.635 C523.494,336.289,524.201,339.943,526.736,341.439 C525.922,348.988,514.039,358.139,509.968,364.212 C505.577,370.76,501.273,378.11,495.135,382.795 C474.414,398.612,430.317,409.857,405.474,406.421 C398.374,405.439,392.097,401.403,385.784,397.922"/>
      <path style="fill:none;opacity:1;stroke:#000000;stroke-linecap:round;stroke-linejoin:round;stroke-miterlimit:10;stroke-opacity:1;stroke-width:10;" d="M382.72,396.689 C390.074,378.042,413.486,343.341,429.444,333.531 C439.11,327.588,450.878,325.818,461.541,323.385 C470.574,321.325,480.868,318.436,490.128,320.12 C493.471,320.728,495.893,324.646,498.902,326.281 C505.795,330.025,513.656,330.793,520.534,334.635 C523.494,336.289,524.201,339.943,526.736,341.439 C525.922,348.988,514.039,358.139,509.968,364.212 C505.577,370.76,501.273,378.11,495.135,382.795 C474.414,398.612,430.317,409.857,405.474,406.421 C398.374,405.439,392.097,401.403,385.784,397.922"/>
    </g>
    <path id="Path" style="fill:none;opacity:1;stroke:#000000;stroke-linecap:round;stroke-linejoin:round;stroke-miterlimit:10;stroke-opacity:1;stroke-width:10;" d="M413.509,386.533 C441.689,371.87,467.864,357.248,497.941,346.714"/>
    <path id="Path" style="fill:#8cc63f;fill-opacity:1;fill-rule:nonzero;opacity:1;stroke:#000000;stroke-linecap:round;stroke-linejoin:round;stroke-miterlimit:10;stroke-opacity:1;stroke-width:10;" d="M362.715,470.339 C355.327,454.007,346.849,449.139,332.923,439.145 C321.404,430.878,309.577,421.538,295.935,417.047 C288.865,414.719,280.434,415.84,273.093,415.84 C248.166,415.84,230.757,418.282,214.538,439.112 C230.601,439.112,238.331,455.33,250.186,464.182 C280.288,486.656,321.593,511.126,358.885,491.549"/>
    <path id="Path" style="fill:none;opacity:1;stroke:#000000;stroke-linecap:round;stroke-linejoin:round;stroke-miterlimit:10;stroke-opacity:1;stroke-width:10;" d="M259.315,438.229 C285.503,440.722,315.987,451.925,337.97,466.214"/>
    <path id="Path" style="fill:none;opacity:1;stroke:#000000;stroke-linecap:round;stroke-linejoin:round;stroke-miterlimit:10;stroke-opacity:1;stroke-width:10;" d="M427.29,596.028 C442.527,616.294,447.504,602.008,458.188,586.364"/>
    <path id="Path" style="fill:none;opacity:1;stroke:#000000;stroke-linecap:round;stroke-linejoin:round;stroke-miterlimit:10;stroke-opacity:1;stroke-width:10;" d="M444.59,655.425 C455.642,664.416,458.089,670.013,466.152,655.465"/>
    <path id="Path" style="fill:none;opacity:1;stroke:#000000;stroke-linecap:round;stroke-linejoin:round;stroke-miterlimit:10;stroke-opacity:1;stroke-width:10;" d="M349.371,617.352 C352.723,622.473,361.604,633.396,368.916,626.157 C371.9,623.202,373.298,617.367,374.966,613.572"/>
    <path id="Path" style="fill:none;opacity:1;stroke:#000000;stroke-linecap:round;stroke-linejoin:round;stroke-miterlimit:10;stroke-opacity:1;stroke-width:10;" d="M290.549,647.389 C292.565,650.308,294.722,655.193,297.738,657.114 C301.472,659.493,310.946,657.399,313.247,653.764 C314.733,651.416,314.76,647.791,315.238,645.096"/>
    <path id="Path" style="fill:none;opacity:1;stroke:#000000;stroke-linecap:round;stroke-linejoin:round;stroke-miterlimit:10;stroke-opacity:1;stroke-width:10;" d="M367.308,666.472 C372.125,668.08,382.615,672.952,386.942,667.899 C388.875,665.641,389.444,661.493,390.342,658.708"/>
  </g>
</svg>
