<?xml version="1.0" encoding="utf-8"?>
<svg x="0px" y="0px" width="800px" height="800px" viewBox="0 0 800 800" xmlns="http://www.w3.org/2000/svg" xmlns:xlink="http://www.w3.org/1999/xlink">
  <!--Generated by AMDN-->
  <g id="Layer 1">
    <path id="Path" style="fill:none;opacity:1;stroke:#000000;stroke-linecap:round;stroke-linejoin:round;stroke-miterlimit:10;stroke-opacity:1;stroke-width:10;" d="M404.095,103.268 C394.412,100.897,381.04,94.8902,371.086,96.2475 C322.459,102.878,312.47,159.994,315.535,198.277 C316.859,214.81,313.701,248.627,331.284,257.816 C343.247,264.067,360.482,261.428,373.49,261.428 C483.616,261.428,496.778,140.322,428.889,113.917 C417.995,109.68,406.253,107.126,395.021,103.917"/>
    <path id="Path" style="fill:none;opacity:1;stroke:#000000;stroke-linecap:round;stroke-linejoin:round;stroke-miterlimit:10;stroke-opacity:1;stroke-width:10;" d="M385.946,258.835 C396.047,333.336,414.388,413.264,387.242,483.11 C371.016,524.859,313.959,563.33,291.31,613.396"/>
    <path id="Path" style="fill:none;opacity:1;stroke:#000000;stroke-linecap:round;stroke-linejoin:round;stroke-miterlimit:10;stroke-opacity:1;stroke-width:10;" d="M398.91,479.22 C431.456,526.788,448.435,579.479,492.898,617.934"/>
    <path id="Path" style="fill:none;opacity:1;stroke:#000000;stroke-linecap:round;stroke-linejoin:round;stroke-miterlimit:10;stroke-opacity:1;stroke-width:10;" d="M535.03,276.336 C495.264,311.916,462.296,336.16,403.447,353.471 C355.947,367.443,313.654,355.568,270.568,334.025"/>
  </g>
</svg>
