<?xml version="1.0" encoding="utf-8"?>
<svg x="0px" y="0px" width="800px" height="800px" viewBox="0 0 800 800" xmlns="http://www.w3.org/2000/svg" xmlns:xlink="http://www.w3.org/1999/xlink">
  <!--Generated by AMDN-->
  <g id="Layer 1">
    <path id="Path" style="fill:#8c6238;fill-opacity:1;fill-rule:nonzero;opacity:1;stroke:#000000;stroke-linecap:round;stroke-linejoin:round;stroke-miterlimit:10;stroke-opacity:1;stroke-width:10;" d="M91.2424,640.122 C100.583,604.457,165.651,498.285,198.128,480.889 C230.332,463.639,270.056,467.492,300.369,445.643 C333.923,421.458,363.122,391.696,390.118,360.769 C404.533,344.255,421.883,330.15,433.697,311.517 C471.601,251.731,464.211,158.332,455.499,91.2425 C480.426,96.1081,509.931,91.9553,535.336,91.9553 C526.734,142.557,531.53,197.719,516.334,246.901 C511.183,263.575,498.3,276.845,491.853,292.974 C501.251,273.678,635.076,148.83,656.47,141.898 C669.184,137.778,724.267,105.298,726.699,114.768 C748.229,198.628,679.848,172.87,642.569,222.1 C607.053,269.003,564.087,325.659,514.984,358.893 C489.49,376.147,460.703,386.396,436.188,405.456 C390.437,441.027,351.358,482.281,300.296,511.217 C282.261,521.437,261.675,518.006,243.901,527.881 C152.653,578.571,193.428,680.724,108.35,633.707"/>
    <path id="Path" style="fill:none;opacity:1;stroke:#000000;stroke-linecap:round;stroke-linejoin:round;stroke-miterlimit:10;stroke-opacity:1;stroke-width:10;" d="M187.945,538.157 C192.83,524.665,198.473,511.57,203.444,498.118"/>
    <path id="Path" style="fill:none;opacity:1;stroke:#000000;stroke-linecap:round;stroke-linejoin:round;stroke-miterlimit:10;stroke-opacity:1;stroke-width:10;" d="M300.314,466.151 C317.173,461.553,325.727,453.632,337.77,441.288"/>
    <path id="Path" style="fill:none;opacity:1;stroke:#000000;stroke-linecap:round;stroke-linejoin:round;stroke-miterlimit:10;stroke-opacity:1;stroke-width:10;" d="M469.189,354.751 C449.402,337.792,448.71,327.915,463.7,306.64"/>
    <path id="Path" style="fill:none;opacity:1;stroke:#000000;stroke-linecap:round;stroke-linejoin:round;stroke-miterlimit:10;stroke-opacity:1;stroke-width:10;" d="M582.035,198.96 C586.663,203.788,591.188,208.042,596.524,212.083"/>
    <path id="Path" style="fill:none;opacity:1;stroke:#000000;stroke-linecap:round;stroke-linejoin:round;stroke-miterlimit:10;stroke-opacity:1;stroke-width:10;" d="M667.926,200.067 C667.926,200.067,658.855,182.709,658.855,182.709"/>
    <path id="Path" style="fill:none;opacity:1;stroke:#000000;stroke-linecap:round;stroke-linejoin:round;stroke-miterlimit:10;stroke-opacity:1;stroke-width:10;" d="M540.936,339.964 C546.849,325.694,546.019,323.496,540.103,309.415"/>
    <path id="Path" style="fill:none;opacity:1;stroke:#000000;stroke-linecap:round;stroke-linejoin:round;stroke-miterlimit:10;stroke-opacity:1;stroke-width:10;" d="M256.399,520.428 C256.399,520.428,268.55,494.676,268.55,494.676"/>
    <path id="Path" style="fill:#603812;fill-opacity:1;fill-rule:nonzero;opacity:1;stroke:#000000;stroke-linecap:round;stroke-linejoin:round;stroke-miterlimit:10;stroke-opacity:1;stroke-width:10;" d="M456.201,89.2048 C457.436,87.1783,458.534,84.6726,460.129,82.9127 C462.16,80.6719,465.862,79.3558,468.49,77.974 C474.882,74.6137,481.093,70.7141,488.427,70.0741 C492.698,69.7015,497.295,70.6903,501.525,71.2241 C505.031,71.6664,509.583,71.4958,512.846,72.8743 C519.667,75.7568,525.087,82.3001,529.924,87.6575"/>
    <path id="Path" style="fill:none;opacity:1;stroke:#000000;stroke-linecap:round;stroke-linejoin:round;stroke-miterlimit:10;stroke-opacity:1;stroke-width:10;" d="M469.576,132.739 C469.576,132.739,487.187,135.581,487.187,135.581"/>
  </g>
</svg>
