<?xml version="1.0" encoding="utf-8"?>
<svg x="0px" y="0px" width="800px" height="800px" viewBox="0 0 800 800" xmlns="http://www.w3.org/2000/svg" xmlns:xlink="http://www.w3.org/1999/xlink">
  <!--Generated by AMDN-->
  <g id="Layer 1">
    <path id="Path" style="fill:#8c6238;fill-opacity:1;fill-rule:nonzero;opacity:1;stroke:#000000;stroke-linecap:round;stroke-linejoin:round;stroke-miterlimit:10;stroke-opacity:1;stroke-width:10;" d="M648.53,326.319 C616.925,326.319,584.281,324.001,552.869,327.925 C517.458,332.348,483.206,342.706,447.636,346.395 C397.334,351.611,328.733,372.023,261.699,353.942 C233.696,346.389,189.222,298.653,164.076,289.728 C164.076,357.413,164.076,425.098,164.076,492.784 C176.044,492.793,248.276,547.371,263.435,557.865"/>
    <path id="Path" style="fill:#8c6238;fill-opacity:1;fill-rule:nonzero;opacity:1;stroke:#000000;stroke-linecap:round;stroke-linejoin:round;stroke-miterlimit:10;stroke-opacity:1;stroke-width:10;" d="M271.502,357.09 C272.882,387.453,266.101,562.265,273.681,575.001 C275.093,577.374,346.896,576.182,357.124,577.561 C426.929,586.977,523.582,588.027,593.616,579.727 C605.664,578.3,660.375,574.48,667.275,568.075 C675.874,560.093,665.561,520.902,664.97,509.815 C661.797,450.345,659.111,390.314,657.694,330.775"/>
    <path id="Path" style="fill:#603812;fill-opacity:1;fill-rule:nonzero;opacity:1;stroke:#000000;stroke-linecap:round;stroke-linejoin:round;stroke-miterlimit:10;stroke-opacity:1;stroke-width:10;" d="M178.268,274.319 C206.612,271.022,234.857,273.573,263.256,271.756 C323.367,267.91,383.239,261.563,443.493,259.311 C463.503,258.563,482.731,257.158,502.194,252.163 C509.046,250.404,514.624,239.936,519.812,240.708 C536.625,243.213,582.128,288.877,597.568,301.168 C603.07,305.548,620.773,311.772,623.557,317.613 C623.634,317.775,591.461,318.69,581.172,319.585 C552.773,322.056,525.778,327.34,497.72,331.652 C446.655,339.498,395.565,351.23,343.954,355.477 C309.894,358.279,274.91,356.145,240.737,356.145 C240.737,356.145,249.535,355.265,249.535,355.265 C232.033,331.258,197.256,318.474,174.748,279.598"/>
    <path id="Path" style="fill:none;opacity:1;stroke:#000000;stroke-linecap:round;stroke-linejoin:round;stroke-miterlimit:10;stroke-opacity:1;stroke-width:10;" d="M182.287,484.839 C183.337,422.888,188.089,359.038,197.341,297.748"/>
    <path id="Path" style="fill:none;opacity:1;stroke:#000000;stroke-linecap:round;stroke-linejoin:round;stroke-miterlimit:10;stroke-opacity:1;stroke-width:10;" d="M211.319,472.653 C205.343,412.897,224.794,379.162,225.06,331.472 C225.094,325.229,221.896,318.092,220.279,312.084"/>
    <path id="Path" style="fill:none;opacity:1;stroke:#000000;stroke-linecap:round;stroke-linejoin:round;stroke-miterlimit:10;stroke-opacity:1;stroke-width:10;" d="M235.423,378.851 C230.83,424.648,220.909,469.152,225.428,515.364"/>
    <path id="Path" style="fill:none;opacity:1;stroke:#000000;stroke-linecap:round;stroke-linejoin:round;stroke-miterlimit:10;stroke-opacity:1;stroke-width:10;" d="M247.199,524.21 C246.937,514.228,245.494,504.348,245.201,494.383 C244.549,472.236,245.889,449.944,247.664,427.879 C248.937,412.048,248.455,397.224,255.841,382.777"/>
    <path id="Path" style="fill:none;opacity:1;stroke:#000000;stroke-linecap:round;stroke-linejoin:round;stroke-miterlimit:10;stroke-opacity:1;stroke-width:10;" d="M205.22,360.377 C205.033,382.273,198.77,403.21,196.346,424.902 C194.571,440.794,196.767,456.781,194.951,472.701"/>
    <path id="Path" style="fill:none;opacity:1;stroke:#000000;stroke-linecap:round;stroke-linejoin:round;stroke-miterlimit:10;stroke-opacity:1;stroke-width:10;" d="M180.046,322.074 C182.656,339.003,178.985,355.376,178.306,372.443 C177.301,397.705,178.405,426.048,179.798,451.362"/>
    <path id="Path" style="fill:none;opacity:1;stroke:#000000;stroke-linecap:round;stroke-linejoin:round;stroke-miterlimit:10;stroke-opacity:1;stroke-width:10;" d="M296.445,562.83 C295.969,535.891,299.165,509.508,296.623,482.482 C294.476,459.653,285.396,412.28,288.614,391.917 C289.772,384.588,293.647,377.43,296.401,370.589"/>
    <path id="Path" style="fill:none;opacity:1;stroke:#000000;stroke-linecap:round;stroke-linejoin:round;stroke-miterlimit:10;stroke-opacity:1;stroke-width:10;" d="M330.478,561.512 C328.351,492.753,313.419,424.999,308.737,356.32"/>
    <path id="Path" style="fill:none;opacity:1;stroke:#000000;stroke-linecap:round;stroke-linejoin:round;stroke-miterlimit:10;stroke-opacity:1;stroke-width:10;" d="M356.355,558.981 C340.293,493.171,328.589,404.111,337.668,337.08"/>
    <path id="Path" style="fill:none;opacity:1;stroke:#000000;stroke-linecap:round;stroke-linejoin:round;stroke-miterlimit:10;stroke-opacity:1;stroke-width:10;" d="M379.27,560.424 C366.937,496.385,355.259,393.168,374.565,330.792"/>
    <path id="Path" style="fill:none;opacity:1;stroke:#000000;stroke-linecap:round;stroke-linejoin:round;stroke-miterlimit:10;stroke-opacity:1;stroke-width:10;" d="M412.217,585.671 C406.279,544.25,397.266,503.392,396.065,461.356 C395.145,429.165,401.776,396.065,406.996,364.462"/>
    <path id="Path" style="fill:none;opacity:1;stroke:#000000;stroke-linecap:round;stroke-linejoin:round;stroke-miterlimit:10;stroke-opacity:1;stroke-width:10;" d="M435.696,572.322 C422.588,495.403,397.562,415.452,430.4,340.069"/>
    <path id="Path" style="fill:none;opacity:1;stroke:#000000;stroke-linecap:round;stroke-linejoin:round;stroke-miterlimit:10;stroke-opacity:1;stroke-width:10;" d="M462.828,572.349 C431.699,476.113,440.913,408.766,456.764,311.701"/>
    <path id="Path" style="fill:none;opacity:1;stroke:#000000;stroke-linecap:round;stroke-linejoin:round;stroke-miterlimit:10;stroke-opacity:1;stroke-width:10;" d="M478.82,585.186 C481.197,511.394,426.327,413.577,476.354,347.632"/>
    <path id="Path" style="fill:none;opacity:1;stroke:#000000;stroke-linecap:round;stroke-linejoin:round;stroke-miterlimit:10;stroke-opacity:1;stroke-width:10;" d="M511.17,569.258 C508.652,500.07,498.385,429.866,512.522,361.249"/>
    <path id="Path" style="fill:none;opacity:1;stroke:#000000;stroke-linecap:round;stroke-linejoin:round;stroke-miterlimit:10;stroke-opacity:1;stroke-width:10;" d="M547.141,543.745 C543.576,494.087,536.721,445.763,538.18,395.759 C538.912,370.67,538.526,346.781,551.032,324.478"/>
    <path id="Path" style="fill:none;opacity:1;stroke:#000000;stroke-linecap:round;stroke-linejoin:round;stroke-miterlimit:10;stroke-opacity:1;stroke-width:10;" d="M564.068,558.007 C560.935,513.531,560.4,469.456,560.92,424.857 C561.213,399.75,559.363,373.932,567.945,350.142"/>
    <path id="Path" style="fill:none;opacity:1;stroke:#000000;stroke-linecap:round;stroke-linejoin:round;stroke-miterlimit:10;stroke-opacity:1;stroke-width:10;" d="M596.016,581.041 C587.7,527.231,585.273,472.397,581.593,418.106 C579.958,393.989,575.105,365.146,589.474,344.712"/>
    <path id="Path" style="fill:none;opacity:1;stroke:#000000;stroke-linecap:round;stroke-linejoin:round;stroke-miterlimit:10;stroke-opacity:1;stroke-width:10;" d="M619.235,584.892 C612.898,549.094,621.735,514.023,621.081,477.895 C620.469,444.107,608.179,378.154,617.593,348.291 C619.369,342.655,626.141,336.156,629.517,331.149"/>
    <path id="Path" style="fill:none;opacity:1;stroke:#000000;stroke-linecap:round;stroke-linejoin:round;stroke-miterlimit:10;stroke-opacity:1;stroke-width:10;" d="M639.721,542.03 C641.155,532.787,643.941,522.772,643.66,513.406 C642.471,473.805,620.734,426.101,630.667,386.471 C632.184,380.417,637.59,373.946,640.698,368.523"/>
    <path id="Path" style="fill:none;opacity:1;stroke:#000000;stroke-linecap:round;stroke-linejoin:round;stroke-miterlimit:10;stroke-opacity:1;stroke-width:10;" d="M480.299,555.154 C474.464,486.866,472.027,408.824,477.273,340.562"/>
    <path id="Path" style="fill:none;opacity:1;stroke:#000000;stroke-linecap:round;stroke-linejoin:round;stroke-miterlimit:10;stroke-opacity:1;stroke-width:10;" d="M516.147,246.941 C509.355,274.784,508.697,302.304,508.698,330.831"/>
  </g>
</svg>
